<mxfile host="Electron" modified="2023-05-13T06:23:32.152Z" agent="Mozilla/5.0 (Windows NT 10.0; Win64; x64) AppleWebKit/537.36 (KHTML, like Gecko) draw.io/21.2.8 Chrome/112.0.5615.165 Electron/24.2.0 Safari/537.36" etag="hH_YGVSuDXE-w0i_Tqm8" version="21.2.8" type="device">
  <diagram name="第 1 页" id="t75GdYu-E0Xjoa3EIG2B">
    <mxGraphModel dx="1036" dy="606" grid="1" gridSize="10" guides="1" tooltips="1" connect="1" arrows="1" fold="1" page="1" pageScale="1" pageWidth="827" pageHeight="1169" math="0" shadow="0">
      <root>
        <mxCell id="0" />
        <mxCell id="1" parent="0" />
        <mxCell id="xNLZQkQG4pmyhcc3Y_ze-2" value="&lt;font face=&quot;Comic Sans MS&quot; style=&quot;font-size: 24px;&quot;&gt;界面层&lt;/font&gt;" style="rounded=1;whiteSpace=wrap;html=1;shadow=1;fillColor=#f5f5f5;fontColor=#333333;strokeColor=#666666;" vertex="1" parent="1">
          <mxGeometry x="160" y="160" width="430" height="80" as="geometry" />
        </mxCell>
        <mxCell id="xNLZQkQG4pmyhcc3Y_ze-3" value="&lt;font style=&quot;font-size: 24px;&quot;&gt;通用服务层&lt;/font&gt;" style="rounded=1;whiteSpace=wrap;html=1;shadow=1;fillColor=#f5f5f5;fontColor=#333333;strokeColor=#666666;" vertex="1" parent="1">
          <mxGeometry x="600" y="160" width="80" height="280" as="geometry" />
        </mxCell>
        <mxCell id="xNLZQkQG4pmyhcc3Y_ze-4" value="&lt;font style=&quot;font-size: 24px;&quot;&gt;应用逻辑层&lt;/font&gt;" style="rounded=1;whiteSpace=wrap;html=1;shadow=1;fillColor=#f5f5f5;fontColor=#333333;strokeColor=#666666;" vertex="1" parent="1">
          <mxGeometry x="160" y="260" width="430" height="180" as="geometry" />
        </mxCell>
        <mxCell id="xNLZQkQG4pmyhcc3Y_ze-5" value="&lt;font style=&quot;font-size: 24px;&quot;&gt;数据持久层&lt;/font&gt;" style="rounded=1;whiteSpace=wrap;html=1;shadow=1;fillColor=#f5f5f5;fontColor=#333333;strokeColor=#666666;" vertex="1" parent="1">
          <mxGeometry x="160" y="460" width="520" height="70" as="geometry" />
        </mxCell>
        <mxCell id="xNLZQkQG4pmyhcc3Y_ze-6" value="&lt;font style=&quot;font-size: 24px;&quot;&gt;数据库&lt;/font&gt;" style="rounded=1;whiteSpace=wrap;html=1;fillColor=#eeeeee;strokeColor=#36393d;" vertex="1" parent="1">
          <mxGeometry x="160" y="549.5" width="520" height="70" as="geometry" />
        </mxCell>
      </root>
    </mxGraphModel>
  </diagram>
</mxfile>
